<svg width="769" height="166" viewBox="0 0 769 166" fill="none" xmlns="http://www.w3.org/2000/svg">
<path d="M55.9654 146.567C60.7454 145.77 65.3262 144.309 69.7078 142.184C74.2223 140.059 78.2719 137.337 81.8569 134.017C82.1225 133.884 82.6536 133.419 83.4503 132.623C84.2469 131.826 84.778 131.56 85.0436 131.826C85.3091 132.091 85.2427 132.49 84.8444 133.021C84.4461 133.552 84.1141 134.017 83.8486 134.415C81.193 138.267 77.6745 141.454 73.2928 143.977C69.044 146.367 64.5959 148.293 59.9487 149.754C56.0982 150.816 51.9821 151.215 47.6005 150.949C43.2188 150.551 39.1027 149.422 35.2522 147.563C34.0572 147.031 33.3269 146.633 33.0614 146.367C32.7958 145.969 32.7958 145.703 33.0614 145.571C33.3269 145.438 33.7253 145.371 34.2564 145.371C34.9203 145.371 35.5178 145.438 36.0489 145.571C37.5094 145.836 39.1691 146.102 41.028 146.367C43.0197 146.5 44.9449 146.633 46.8038 146.766C48.7955 146.766 50.588 146.766 52.1813 146.766C53.7746 146.766 55.036 146.699 55.9654 146.567ZM29.2772 88.0019C28.6134 92.6499 28.2814 97.2315 28.2814 101.747C28.2814 106.129 28.547 110.312 29.0781 114.296C29.742 118.147 30.6714 121.6 31.8664 124.655C33.1942 127.709 34.7875 130.232 36.6464 132.224C38.7708 134.349 41.36 136.009 44.4138 137.204C47.6005 138.267 50.9863 138.798 54.5713 138.798C58.289 138.798 62.1395 138.267 66.1229 137.204C70.2389 136.142 74.2886 134.482 78.272 132.224C79.0686 131.693 79.5997 131.56 79.8653 131.826C80.1308 132.091 79.9981 132.423 79.4669 132.822C79.0686 133.087 78.6703 133.353 78.272 133.619C74.8197 136.275 71.1684 138.399 67.3179 139.993C63.4673 141.587 59.5504 142.583 55.5671 142.981C51.7166 143.379 47.9324 143.18 44.2147 142.383C40.6297 141.454 37.3766 139.794 34.4555 137.403C31.6672 135.013 29.41 132.158 27.6839 128.838C25.9578 125.385 24.63 121.667 23.7006 117.683C22.9039 113.566 22.4392 109.316 22.3065 104.934C22.1737 100.551 22.3065 96.2355 22.7048 91.9859C23.2359 85.2131 24.5637 78.3739 26.6881 71.4683C28.8125 64.5627 31.6008 58.1883 35.053 52.3451C38.638 46.5019 42.8869 41.3891 47.7996 37.0067C52.7124 32.6243 58.2226 29.5699 64.3304 27.8435C67.3842 27.0467 70.5045 26.7147 73.6911 26.8475C76.8778 26.9803 79.7989 27.5779 82.4544 28.6403C85.2427 29.7027 87.6327 31.2963 89.6244 33.4211C91.616 35.4131 92.9438 37.8699 93.6077 40.7915C94.2716 43.9787 94.006 47.0995 92.811 50.1539C91.616 53.0755 89.9563 55.6651 87.8319 57.9227C85.7075 60.0475 83.3175 61.5747 80.6619 62.5043C78.0064 63.4339 75.4836 63.4339 73.0936 62.5043C72.9609 62.5043 72.8281 62.3051 72.6953 61.9067C72.6953 61.5083 72.9609 61.3755 73.492 61.5083C75.0853 61.7739 76.8778 61.4419 78.8694 60.5123C80.9939 59.4499 82.8528 58.0555 84.4461 56.3291C86.1722 54.6027 87.5 52.5443 88.4294 50.1539C89.4916 47.7635 89.8235 45.3067 89.4252 42.7835C89.0269 40.9243 88.1638 39.3307 86.8361 38.0027C85.6411 36.5419 84.0478 35.4131 82.0561 34.6163C80.0644 33.6867 77.8072 33.0891 75.2845 32.8235C72.8945 32.5579 70.3717 32.6907 67.7162 33.2219C62.6707 34.1515 57.9571 36.4091 53.5754 39.9947C49.3266 43.4475 45.5424 47.6971 42.223 52.7435C38.9036 57.7899 36.1153 63.4339 33.8581 69.6755C31.6008 75.7843 30.0739 81.8931 29.2772 88.0019ZM45.0113 153.937C46.4719 154.07 47.9324 154.136 49.393 154.136C50.9863 154.136 51.7829 154.335 51.7829 154.734C51.7829 154.867 51.5174 154.933 50.9863 154.933C50.4552 155.066 49.8577 155.132 49.1938 155.132C48.6627 155.132 48.0652 155.132 47.4013 155.132C46.7374 155.132 46.3391 155.132 46.2063 155.132C42.0902 155.132 38.0405 154.535 34.0572 153.339C30.0739 152.144 26.3561 150.484 22.9039 148.359C19.5845 146.102 16.597 143.379 13.9415 140.192C11.286 137.005 9.29431 133.353 7.96654 129.236C5.311 121.135 3.78406 113.234 3.38573 105.531C2.9874 97.8291 3.31934 90.2595 4.38156 82.8227C4.91267 78.5731 5.90849 73.7923 7.36904 68.4803C8.96237 63.0355 11.0204 57.5243 13.5432 51.9467C16.1987 46.3691 19.4517 40.8579 23.3023 35.4131C27.2856 29.9683 31.9992 24.9883 37.443 20.4731C43.1524 15.6923 49.4593 12.5051 56.3637 10.9115C63.4009 9.31787 70.1062 9.05227 76.4795 10.1147C82.8528 11.1771 88.4958 13.4347 93.4085 16.8875C98.3213 20.2075 101.574 24.4571 103.168 29.6363C103.3 29.9019 103.433 30.4995 103.566 31.4291C103.699 32.2259 103.632 32.7571 103.367 33.0227C103.234 33.1555 103.035 32.8235 102.769 32.0267C102.504 31.2299 102.238 30.6987 101.973 30.4331C96.396 22.8635 90.0891 18.0827 83.0519 16.0907C76.0147 13.9659 69.044 13.7667 62.1396 15.4931C55.2351 17.0867 48.7291 20.1411 42.6213 24.6563C36.5136 29.0387 31.6672 33.9523 28.0823 39.3971C21.8417 48.8259 17.0618 58.8523 13.7423 69.4763C10.5557 80.1003 9.09514 91.0563 9.3607 102.344C9.49347 107.523 10.0246 112.968 10.954 118.679C12.0162 124.389 14.0079 129.834 16.929 135.013C19.8501 140.325 23.8334 144.774 28.8789 148.359C34.0572 151.812 39.4347 153.671 45.0113 153.937ZM16.3315 79.0379C17.3937 71.9995 19.0534 65.1603 21.3106 58.5203C23.7006 51.8803 26.7545 45.8379 30.4722 40.3931C34.3228 34.8155 39.0364 30.0347 44.613 26.0507C50.1896 22.0667 56.7621 19.2779 64.3304 17.6843C66.9859 17.1531 69.9734 16.9539 73.2928 17.0867C76.6122 17.0867 79.9317 17.6843 83.2511 18.8795C86.5705 19.9419 89.6244 21.6019 92.4127 23.8595C95.3338 26.1171 97.7238 29.2379 99.5827 33.2219C101.309 37.0731 101.906 40.8579 101.375 44.5763C100.844 48.2947 99.7154 51.6811 97.9893 54.7355C96.2632 57.6571 94.1388 60.1139 91.616 62.1059C89.0933 64.0979 86.6369 65.2267 84.2469 65.4923C82.7864 65.7579 81.9897 65.7579 81.8569 65.4923C81.7242 65.0939 82.4544 64.6291 84.0478 64.0979C86.5705 63.3011 89.0933 61.3091 91.616 58.1219C94.2716 54.8019 95.8649 50.6187 96.396 45.5723C96.6616 43.0491 96.3296 40.5923 95.4002 38.2019C94.4707 35.6787 93.143 33.4875 91.4169 31.6283C89.6908 29.7691 87.6327 28.1755 85.2427 26.8475C82.8528 25.5195 80.33 24.6563 77.6745 24.2579C71.965 23.4611 66.7204 23.8595 61.9404 25.4531C57.1604 27.0467 52.9779 29.1051 49.393 31.6283C45.9408 34.0187 43.0861 36.4091 40.8288 38.7995C38.7044 41.1899 37.3766 42.7835 36.8455 43.5803C32.7294 48.7595 29.1445 54.4035 26.0906 60.5123C23.0367 66.4883 20.514 72.7963 18.5223 79.4363C18.5223 79.5691 18.3895 80.0339 18.124 80.8307C17.9912 81.6275 17.792 82.4907 17.5265 83.4203C17.3937 84.2171 17.1945 85.0139 16.929 85.8107C16.6634 86.4747 16.4643 86.8067 16.3315 86.8067C16.0659 86.8067 15.9332 86.4083 15.9332 85.6115C15.9332 84.8147 15.9332 84.0179 15.9332 83.2211C15.9332 82.2915 15.9995 81.4283 16.1323 80.6315C16.2651 79.8347 16.3315 79.3035 16.3315 79.0379ZM139.462 49.9547C137.205 57.7899 134.616 65.8243 131.695 74.0579C128.906 82.2915 125.985 90.0603 122.931 97.3643C122.799 97.7627 122.4 98.4931 121.736 99.5555C121.205 100.618 120.741 101.083 120.342 100.95C120.077 100.95 119.878 100.352 119.745 99.1571C119.745 97.8291 119.811 96.8331 119.944 96.1691C120.21 94.4427 120.608 92.3179 121.139 89.7947C121.67 87.2715 122.201 84.6819 122.732 82.0259C123.396 79.3699 123.994 76.7803 124.525 74.2571C125.189 71.7339 125.853 69.5427 126.516 67.6835C126.782 66.8867 127.247 65.1603 127.911 62.5043C128.575 59.8483 129.305 56.6611 130.101 52.9427C130.898 49.2243 131.695 45.2403 132.491 40.9907C133.421 36.7411 134.151 32.6243 134.682 28.6403C135.346 24.6563 135.811 21.0043 136.076 17.6843C136.342 14.3643 136.276 11.8411 135.877 10.1147C135.479 8.78667 135.479 8.12268 135.877 8.12268C136.143 8.12268 136.342 8.32187 136.475 8.72027C136.74 8.98587 137.006 9.25147 137.271 9.51707C138.599 11.9075 139.595 14.8291 140.259 18.2819C141.056 21.7347 141.52 25.3203 141.653 29.0387C141.786 32.7571 141.653 36.4755 141.255 40.1939C140.856 43.9123 140.259 47.1659 139.462 49.9547ZM131.496 3.93947C133.222 10.7123 133.62 17.8171 132.691 25.2539C131.894 32.6907 130.433 40.2603 128.309 47.9627C126.185 55.6651 123.795 63.5003 121.139 71.4683C118.483 79.3035 116.226 87.2051 114.367 95.1731C113.172 100.219 112.177 105.465 111.38 110.91C110.716 116.222 110.384 121.534 110.384 126.846C110.384 132.025 110.782 137.071 111.579 141.985C112.508 146.766 114.035 151.082 116.16 154.933C116.425 155.464 116.492 155.863 116.359 156.128C116.359 156.394 115.961 155.995 115.164 154.933C111.712 150.949 109.123 146.434 107.397 141.387C105.803 136.341 104.874 131.029 104.608 125.451C104.343 119.874 104.608 114.097 105.405 108.121C106.202 102.145 107.33 96.3019 108.791 90.5915C110.782 82.6235 112.973 74.7883 115.363 67.0859C117.886 59.3835 120.21 51.8803 122.334 44.5763C124.591 37.2723 126.45 30.2339 127.911 23.4611C129.371 16.5555 130.101 9.91547 130.101 3.54106C130.101 2.87706 130.168 2.54506 130.301 2.54506C130.832 2.54506 131.23 3.00987 131.496 3.93947ZM167.744 154.933C162.831 152.675 158.914 149.156 155.993 144.375C153.072 139.595 151.279 134.083 150.615 127.842C149.952 121.733 149.952 116.687 150.615 112.703C151.279 108.586 152.076 104.535 153.005 100.551C153.138 100.02 153.404 99.1571 153.802 97.9619C154.2 96.6339 154.466 95.3059 154.599 93.9779C154.864 92.6499 154.864 91.5211 154.599 90.5915C154.466 89.5291 153.935 88.8651 153.005 88.5995C151.147 88.2011 149.022 89.0643 146.632 91.1891C144.242 93.1811 141.919 95.7043 139.661 98.7587C137.537 101.813 135.545 105 133.686 108.32C131.96 111.507 130.832 114.031 130.301 115.89C129.106 119.741 127.844 123.393 126.516 126.846C125.189 130.299 123.994 133.751 122.931 137.204C122.533 138.665 122.201 139.329 121.936 139.196C121.67 139.196 121.471 138.931 121.338 138.399C121.338 137.868 121.338 137.271 121.338 136.607C121.338 131.295 121.736 125.983 122.533 120.671C123.33 115.226 124.392 109.847 125.72 104.535C127.18 99.2235 128.774 93.9115 130.5 88.5995C132.226 83.2875 133.886 77.9091 135.479 72.4643C137.603 65.6915 139.595 58.7859 141.454 51.7475C143.446 44.7091 144.773 37.1395 145.437 29.0387C145.437 28.3747 145.437 28.0427 145.437 28.0427C145.437 27.9099 145.504 27.8435 145.636 27.8435C146.035 27.8435 146.367 28.3747 146.632 29.4371C147.296 31.1635 147.562 33.6203 147.429 36.8075C147.429 39.8619 147.163 43.2483 146.632 46.9667C146.234 50.6851 145.57 54.4699 144.641 58.3211C143.844 62.1723 142.981 65.6251 142.051 68.6795C144.574 66.0235 147.562 63.9651 151.014 62.5043C154.466 61.0435 158.582 60.6451 163.362 61.3091C168.806 62.1059 172.988 64.0979 175.91 67.2851C178.831 70.3395 180.822 74.0579 181.884 78.4403C182.947 82.8227 183.212 87.5371 182.681 92.5835C182.283 97.4971 181.486 102.278 180.291 106.926C179.229 110.511 178.233 113.699 177.304 116.487C176.374 119.143 175.445 121.6 174.515 123.858C173.586 126.115 172.789 128.24 172.125 130.232C171.461 132.224 170.93 134.349 170.532 136.607C170.266 138.067 170.001 138.798 169.735 138.798C169.47 138.798 169.204 138.532 168.939 138.001C168.806 137.47 168.673 136.939 168.54 136.407C167.744 133.486 167.677 129.9 168.341 125.651C169.138 121.401 170.134 116.952 171.329 112.304C172.524 107.523 173.586 102.743 174.515 97.9619C175.578 93.0483 175.976 88.5331 175.71 84.4163C175.578 80.2995 174.515 76.7139 172.524 73.6595C170.532 70.4723 167.146 68.2811 162.366 67.0859C160.375 66.5547 158.184 66.4219 155.794 66.6875C153.537 66.8203 151.346 67.3515 149.221 68.2811C147.23 69.0779 145.437 70.2731 143.844 71.8667C142.251 73.4603 141.188 75.3195 140.657 77.4443C143.18 74.7883 146.433 72.5971 150.416 70.8707C154.4 69.1443 158.25 68.8787 161.968 70.0739C165.42 71.1363 167.876 73.0619 169.337 75.8507C170.798 78.6395 171.661 81.0963 171.926 83.2211C172.457 87.8691 172.125 92.1187 170.93 95.9699C169.868 99.6883 168.607 103.274 167.146 106.727C166.881 107.125 166.482 107.789 165.951 108.719C165.42 109.515 165.022 109.847 164.756 109.715C164.491 109.715 164.358 109.183 164.358 108.121C164.358 107.059 164.424 106.262 164.557 105.731C164.955 104.403 165.287 102.344 165.553 99.5555C165.818 96.6339 165.885 93.6459 165.752 90.5915C165.752 87.5371 165.354 84.6819 164.557 82.0259C163.893 79.3699 162.765 77.5771 161.171 76.6475C159.312 75.5851 157.055 75.3195 154.4 75.8507C151.744 76.2491 148.889 77.8427 145.836 80.6315C143.18 83.0219 140.923 85.8107 139.064 88.9979C137.205 92.0523 135.612 96.1027 134.284 101.149C135.081 99.6883 136.342 97.6299 138.068 94.9739C139.794 92.3179 141.719 89.7947 143.844 87.4043C146.101 85.0139 148.425 83.1547 150.815 81.8267C153.337 80.3659 155.727 80.1667 157.985 81.2291C159.445 82.0259 160.375 83.4203 160.773 85.4123C161.304 87.2715 161.437 89.3963 161.171 91.7867C161.038 94.1771 160.707 96.5011 160.175 98.7587C159.644 101.016 159.18 102.809 158.781 104.137C157.321 108.121 156.325 112.503 155.794 117.284C155.263 121.932 155.263 126.514 155.794 131.029C156.458 135.544 157.785 139.794 159.777 143.778C161.769 147.762 164.69 151.148 168.54 153.937C169.735 154.601 169.935 154.933 169.138 154.933C168.474 154.933 168.009 154.933 167.744 154.933ZM172.922 153.339C171.063 152.277 169.271 151.148 167.545 149.953C165.951 148.758 164.358 146.434 162.765 142.981C162.101 141.653 161.57 139.86 161.171 137.603C160.906 135.345 160.707 133.22 160.574 131.228C160.574 129.103 160.707 127.377 160.972 126.049C161.238 124.588 161.57 123.924 161.968 124.057C162.233 124.057 162.499 124.389 162.765 125.053C163.03 125.584 163.229 126.248 163.362 127.045C163.495 127.842 163.628 128.639 163.76 129.435C163.893 130.099 163.96 130.564 163.96 130.83C164.491 133.751 164.955 135.943 165.354 137.403C165.752 138.731 166.283 140.192 166.947 141.786C168.009 143.911 169.071 145.836 170.134 147.563C171.196 149.289 172.524 150.883 174.117 152.343C174.781 152.875 174.914 153.273 174.515 153.539C174.25 153.804 173.719 153.738 172.922 153.339ZM122.533 154.933C122.666 154.933 122.533 154.999 122.135 155.132C121.869 155.265 121.272 155.199 120.342 154.933C119.28 154.402 118.152 153.406 116.957 151.945C115.894 150.484 115.031 147.629 114.367 143.379C114.102 141.653 113.969 139.595 113.969 137.204C113.969 134.681 114.035 132.357 114.168 130.232C114.434 127.975 114.766 126.049 115.164 124.455C115.562 122.862 116.027 122.131 116.558 122.264C116.691 122.264 116.824 122.663 116.957 123.459C117.089 124.256 117.222 125.186 117.355 126.248C117.488 127.178 117.554 128.174 117.554 129.236C117.554 130.166 117.554 130.83 117.554 131.228C117.687 134.15 117.82 136.341 117.952 137.802C118.218 139.13 118.55 140.989 118.948 143.379C119.347 145.903 119.811 148.227 120.342 150.351C120.873 152.343 121.604 153.871 122.533 154.933ZM264.258 84.8147C263.196 90.1267 261.403 95.4387 258.881 100.751C256.358 106.063 253.968 111.043 251.711 115.691C251.578 115.956 251.246 116.421 250.715 117.085C250.317 117.749 249.985 118.081 249.719 118.081C249.321 117.948 249.122 117.55 249.122 116.886C249.122 116.089 249.122 115.558 249.122 115.292C249.254 114.097 249.454 112.703 249.719 111.109C250.117 109.383 250.449 107.656 250.715 105.93C250.98 104.071 251.246 102.344 251.512 100.751C251.91 99.0243 252.308 97.4971 252.707 96.1691C253.902 91.6539 254.897 87.8027 255.694 84.6155C256.491 81.2955 257.088 78.3075 257.487 75.6515C257.885 72.9955 258.084 70.4723 258.084 68.0819C258.217 65.6915 258.084 63.1019 257.686 60.3131C257.553 59.2507 257.619 58.5867 257.885 58.3211C258.15 58.1883 258.482 58.3211 258.881 58.7195C259.279 59.1179 259.611 59.5163 259.877 59.9147C262.134 63.5003 263.661 67.4843 264.457 71.8667C265.254 76.1163 265.188 80.4323 264.258 84.8147ZM269.038 71.4683C270.764 73.9915 271.627 77.3115 271.627 81.4283C271.627 85.5451 271.229 89.7947 270.432 94.1771C269.636 98.4267 268.64 102.543 267.445 106.527C266.25 110.511 265.387 113.699 264.856 116.089C263.793 120.737 262.333 125.385 260.474 130.033C258.615 134.681 257.022 138.798 255.694 142.383C255.561 142.782 255.362 143.247 255.097 143.778C254.831 144.176 254.565 144.375 254.3 144.375C254.034 144.375 253.902 144.11 253.902 143.579C253.902 143.047 253.902 142.583 253.902 142.184C253.503 134.88 254.3 127.775 256.292 120.87C258.283 113.831 260.408 106.727 262.665 99.5555C263.993 95.1731 265.254 90.7243 266.449 86.2091C267.644 81.5611 268.175 76.5147 268.042 71.0699C268.042 70.5387 268.109 70.2731 268.242 70.2731L269.038 71.4683ZM250.317 68.0819C242.217 71.4019 235.313 76.1827 229.603 82.4243C224.027 88.5331 219.712 95.4387 216.658 103.141C215.33 106.594 214.334 109.715 213.67 112.503C213.006 115.159 212.475 118.081 212.077 121.268C211.944 121.932 212.143 122.596 212.674 123.26C213.205 123.924 213.737 123.924 214.268 123.26C216.658 120.339 219.712 116.62 223.429 112.105C227.147 107.59 230.865 102.809 234.583 97.7627C238.3 92.7163 241.62 87.6035 244.541 82.4243C247.595 77.2451 249.52 72.4643 250.317 68.0819ZM236.973 135.611C234.981 138.399 233.056 140.989 231.197 143.379C229.338 145.77 227.28 147.895 225.023 149.754C222.765 151.48 220.243 152.875 217.454 153.937C214.666 154.999 211.479 155.597 207.894 155.73C201.919 155.995 197.339 154.468 194.152 151.148C191.098 147.828 188.974 143.778 187.779 138.997C186.584 134.216 186.119 129.303 186.385 124.256C186.783 119.077 187.513 114.827 188.575 111.507C190.036 106.859 191.762 102.477 193.754 98.3603C195.878 94.1107 198.069 90.3259 200.326 87.0059C202.716 83.5531 205.106 80.6315 207.496 78.2411C210.019 75.7179 212.475 73.7923 214.865 72.4643C214.998 72.4643 215.263 72.3315 215.662 72.0659C216.193 71.8003 216.458 71.8667 216.458 72.2651C216.591 72.2651 216.525 72.4643 216.259 72.8627C215.994 73.2611 215.728 73.5931 215.463 73.8587C208.558 81.0299 203.048 89.1307 198.932 98.1611C194.949 107.191 192.691 116.487 192.16 126.049C192.028 128.439 192.094 131.029 192.359 133.818C192.758 136.607 193.422 139.263 194.351 141.786C195.413 144.176 196.874 146.235 198.733 147.961C200.592 149.555 203.114 150.351 206.301 150.351C208.824 150.351 211.147 149.953 213.272 149.156C215.396 148.227 217.388 147.098 219.247 145.77C221.106 144.309 222.765 142.782 224.226 141.188C225.819 139.462 227.213 137.868 228.408 136.407C231.064 133.087 233.52 129.635 235.778 126.049C235.778 123.393 235.91 120.803 236.176 118.28C236.574 115.757 237.105 113.234 237.769 110.711C238.168 108.851 238.499 107.391 238.765 106.328C239.163 105.133 239.495 104.071 239.761 103.141C240.159 102.079 240.491 101.016 240.757 99.9539C241.155 98.7587 241.686 97.2315 242.35 95.3723C240.226 99.0907 238.101 102.61 235.977 105.93C233.985 109.117 231.794 112.238 229.404 115.292C227.147 118.214 224.757 121.135 222.234 124.057C219.844 126.846 217.189 129.701 214.268 132.623C212.01 134.88 210.152 135.611 208.691 134.814C207.23 134.017 206.367 132.158 206.102 129.236C205.836 124.721 206.036 120.339 206.699 116.089C207.496 111.839 208.824 107.391 210.683 102.743C212.409 98.4931 214.533 94.3763 217.056 90.3923C219.712 86.4083 222.699 82.8227 226.018 79.6355C229.471 76.3155 233.255 73.5267 237.371 71.2691C241.487 68.8787 245.869 67.2851 250.516 66.4883C250.781 65.0275 250.981 63.7659 251.113 62.7035C251.379 61.6411 251.578 60.5787 251.711 59.5163C251.976 58.0555 252.109 57.3251 252.109 57.3251C252.375 57.1923 252.64 57.3251 252.906 57.7235C253.304 58.1219 253.636 58.6531 253.902 59.3171C255.495 63.6995 256.026 68.0819 255.495 72.4643C254.964 76.8467 253.968 81.2955 252.507 85.8107C251.18 90.3259 249.586 94.9739 247.727 99.7547C245.869 104.403 244.342 109.117 243.147 113.898C241.553 120.671 241.089 127.709 241.753 135.013C242.549 142.184 245.404 148.691 250.317 154.535C250.715 155.066 250.914 155.331 250.914 155.331C250.781 155.464 250.383 155.331 249.719 154.933C245.869 152.543 242.947 149.687 240.956 146.367C239.097 142.915 237.769 139.329 236.973 135.611ZM243.943 65.0939C244.209 65.3595 244.142 65.5587 243.744 65.6915C243.479 65.8243 242.815 66.0235 241.753 66.2891C240.026 66.8203 237.902 67.8163 235.379 69.2771C232.989 70.7379 230.4 72.5971 227.612 74.8547C224.956 77.1123 222.301 79.7683 219.645 82.8227C216.99 85.7443 214.666 88.9315 212.674 92.3843C210.683 95.9699 208.957 99.4891 207.496 102.942C206.168 106.395 205.04 109.582 204.11 112.503C203.314 115.292 202.716 117.749 202.318 119.874C201.919 121.866 201.72 123.26 201.72 124.057C201.72 126.049 201.72 128.174 201.72 130.431C201.72 132.556 201.986 134.482 202.517 136.208C203.048 137.935 203.977 139.263 205.305 140.192C206.633 141.122 208.625 141.387 211.28 140.989C211.413 140.989 211.745 140.923 212.276 140.79C212.807 140.524 213.338 140.325 213.869 140.192C214.4 139.927 214.865 139.727 215.264 139.595C215.795 139.462 216.127 139.395 216.259 139.395C216.392 139.661 216.259 139.993 215.861 140.391C215.595 140.79 215.197 141.255 214.666 141.786C214.135 142.184 213.604 142.583 213.073 142.981C212.674 143.379 212.409 143.645 212.276 143.778C208.957 145.77 206.168 146.367 203.911 145.571C201.654 144.774 199.861 143.313 198.534 141.188C197.339 138.931 196.476 136.341 195.944 133.419C195.546 130.365 195.413 127.643 195.546 125.252C195.812 120.604 196.542 116.023 197.737 111.507C198.932 106.859 200.459 102.211 202.318 97.5635C203.778 93.9779 205.969 90.3259 208.89 86.6075C211.811 82.7563 215.064 79.2371 218.649 76.0499C222.367 72.8627 226.218 70.2731 230.201 68.2811C234.184 66.1563 238.035 65.0275 241.753 64.8947C243.08 64.8947 243.811 64.9611 243.943 65.0939ZM255.694 154.535C255.96 154.933 256.026 155.199 255.893 155.331C255.495 155.331 254.964 155.199 254.3 154.933C253.902 154.667 252.839 153.871 251.113 152.543C249.387 151.215 248.126 149.09 247.329 146.168C247.064 145.106 246.798 143.778 246.532 142.184C246.4 140.458 246.333 138.864 246.333 137.403C246.333 135.943 246.4 134.681 246.532 133.619C246.798 132.556 247.13 132.025 247.528 132.025C247.927 132.025 248.325 132.822 248.723 134.415C249.254 136.009 249.586 137.005 249.719 137.403C250.117 139.263 250.449 140.923 250.715 142.383C251.113 143.711 251.512 144.973 251.91 146.168C252.441 147.629 253.105 149.289 253.902 151.148C254.831 153.007 255.429 154.136 255.694 154.535ZM330.875 66.4883C331.007 66.6211 331.074 66.9531 331.074 67.4843C331.074 67.8827 331.007 68.2147 330.875 68.4803C329.68 72.3315 327.622 75.0539 324.701 76.6475C321.779 78.2411 319.19 79.0379 316.933 79.0379C314.145 79.0379 311.29 78.8387 308.369 78.4403C305.448 77.9091 302.66 76.6475 300.004 74.6555C299.738 74.3899 299.406 74.1243 299.008 73.8587C298.61 73.5931 298.411 73.3275 298.411 73.0619C298.411 72.6635 298.61 72.3979 299.008 72.2651C299.406 71.9995 299.738 71.8003 300.004 71.6675C301.199 71.4019 302.726 71.2027 304.585 71.0699C306.576 70.8043 308.502 70.8043 310.361 71.0699C311.688 71.3355 313.282 71.4683 315.141 71.4683C316.999 71.4683 318.858 71.3355 320.717 71.0699C322.709 70.8043 324.501 70.4059 326.095 69.8747C327.688 69.2107 328.883 68.2811 329.68 67.0859C330.078 66.5547 330.476 66.3555 330.875 66.4883ZM332.269 60.3131L331.671 61.3091C329.414 64.2307 327.024 66.1563 324.501 67.0859C321.979 67.8827 319.323 68.2147 316.535 68.0819C313.746 67.9491 310.892 67.6171 307.971 67.0859C305.182 66.4219 302.394 66.0235 299.606 65.8907C295.888 65.7579 292.17 66.8867 288.452 69.2771C284.735 71.6675 281.548 75.8507 278.892 81.8267C278.494 82.6235 278.229 82.8227 278.096 82.4243C277.963 81.8931 277.963 81.4283 278.096 81.0299C279.158 77.0459 280.419 73.7259 281.88 71.0699C283.34 68.4139 284.867 66.2891 286.461 64.6955C288.187 62.9691 289.979 61.7075 291.838 60.9107C293.697 60.1139 295.622 59.5827 297.614 59.3171C299.871 51.7475 301.597 44.3771 302.792 37.2059C304.12 29.9019 304.253 22.9963 303.191 16.4891C303.191 15.9579 303.191 15.6923 303.191 15.6923C303.456 15.5595 303.722 15.6259 303.987 15.8915C304.253 16.1571 304.386 16.3563 304.386 16.4891C307.307 22.8635 308.502 29.7027 307.971 37.0067C307.439 44.1779 306.112 51.7475 303.987 59.7155C304.651 59.8483 305.182 59.9147 305.581 59.9147C305.979 59.9147 306.444 59.9147 306.975 59.9147C307.639 56.4619 308.236 52.8099 308.767 48.9587C309.431 44.9747 309.896 41.1899 310.161 37.6043C310.56 34.0187 310.693 30.7651 310.56 27.8435C310.427 24.9219 309.962 22.7307 309.166 21.2699C308.767 20.0747 308.767 19.4771 309.166 19.4771C309.431 19.4771 309.63 19.6099 309.763 19.8755C309.896 20.1411 310.095 20.4067 310.361 20.6723C312.219 22.5315 313.68 25.0547 314.742 28.2419C315.804 31.4291 316.535 34.8155 316.933 38.4011C317.331 41.9867 317.464 45.5723 317.331 49.1579C317.199 52.6107 316.8 55.6651 316.136 58.3211L315.34 61.5083C315.738 61.7739 316.136 61.9067 316.535 61.9067C316.933 61.9067 317.331 61.9731 317.73 62.1059C318.526 58.1219 319.19 54.1379 319.721 50.1539C320.385 46.1699 320.651 41.9867 320.518 37.6043C320.518 36.6747 320.584 36.2099 320.717 36.2099C320.983 36.2099 321.182 36.4091 321.315 36.8075C321.447 37.2059 321.58 37.5379 321.713 37.8035C323.306 40.7251 324.037 44.3771 323.904 48.7595C323.904 53.1419 323.572 57.7899 322.908 62.7035C325.829 62.7035 328.617 61.9067 331.273 60.3131C331.937 59.9147 332.269 59.9147 332.269 60.3131ZM291.042 73.8587C291.042 74.5227 290.643 75.1867 289.847 75.8507C289.183 76.5147 288.652 76.9795 288.253 77.2451C287.589 77.7763 286.793 78.4403 285.863 79.2371C285.067 79.9011 284.336 80.6315 283.672 81.4283C283.009 82.4907 282.345 83.4203 281.681 84.2171C281.15 85.0139 280.685 86.1427 280.287 87.6035C280.154 87.8691 279.955 88.1347 279.689 88.4003C279.556 88.5331 279.424 88.5331 279.291 88.4003C278.892 88.0019 278.892 87.1387 279.291 85.8107C279.822 83.8187 280.353 82.2251 280.884 81.0299C281.415 79.7019 282.411 78.3075 283.872 76.8467C284.403 76.3155 285.067 75.7843 285.863 75.2531C286.66 74.7219 287.457 74.2571 288.253 73.8587C289.05 73.4603 289.714 73.2611 290.245 73.2611C290.776 73.2611 291.042 73.4603 291.042 73.8587ZM306.576 153.937C307.24 153.671 307.506 153.738 307.373 154.136C307.24 154.535 307.041 154.8 306.776 154.933C304.386 155.73 301.863 155.597 299.207 154.535C296.552 153.472 294.095 151.812 291.838 149.555C289.581 147.297 287.656 144.707 286.062 141.786C284.469 138.731 283.473 135.743 283.075 132.822C282.411 126.58 282.345 120.538 282.876 114.695C283.407 108.851 284.403 103.075 285.863 97.3643L289.249 84.8147C288.452 84.8147 287.656 84.6155 286.859 84.2171C285.93 83.9515 285.465 83.6195 285.465 83.2211C285.465 82.9555 285.93 82.5571 286.859 82.0259C290.577 80.1667 294.295 79.3699 298.012 79.6355C301.863 79.9011 305.713 80.3659 309.564 81.0299C311.954 81.4283 314.344 81.7603 316.734 82.0259C319.257 82.1587 321.979 81.6275 324.9 80.4323C325.165 80.1667 325.431 80.1003 325.696 80.2331C325.962 80.4987 325.895 80.9635 325.497 81.6275C324.7 83.3539 323.572 84.6155 322.111 85.4123C320.651 86.2091 319.124 86.8067 317.531 87.2051C316.468 90.6579 315.539 93.7787 314.742 96.5675C313.946 99.2235 313.282 101.481 312.751 103.34C311.29 109.715 309.564 116.222 307.572 122.862C305.713 129.369 304.452 134.88 303.788 139.395C303.523 140.856 303.257 141.653 302.991 141.786C302.726 141.919 302.46 141.653 302.195 140.989C301.929 140.325 301.73 139.794 301.597 139.395C301.066 135.544 300.933 131.56 301.199 127.443C301.597 123.194 302.261 118.878 303.191 114.495C304.12 110.113 305.182 105.731 306.377 101.348C307.572 96.8331 308.834 92.3179 310.161 87.8027C309.498 87.8027 308.834 87.8027 308.17 87.8027C307.506 87.8027 306.842 87.7363 306.178 87.6035C305.116 90.3923 303.987 93.1811 302.792 95.9699C301.73 98.6259 300.668 101.149 299.606 103.539C299.473 103.805 299.141 104.469 298.61 105.531C298.211 106.461 297.88 106.926 297.614 106.926C297.083 106.793 296.884 106.195 297.016 105.133C297.149 103.938 297.216 103.141 297.216 102.743C297.481 100.751 297.88 98.4267 298.411 95.7707C299.075 93.1147 299.672 90.2595 300.203 87.2051C299.539 87.0723 298.809 87.0059 298.012 87.0059C297.216 86.8731 296.419 86.6739 295.622 86.4083C294.826 89.0643 294.029 91.6539 293.232 94.1771C292.568 96.7003 291.905 99.2235 291.241 101.747C290.178 106.395 289.382 111.375 288.851 116.687C288.32 121.866 288.32 127.244 288.851 132.822C289.116 135.345 289.78 137.935 290.842 140.591C292.037 143.247 293.432 145.637 295.025 147.762C296.618 149.887 298.411 151.547 300.402 152.742C302.527 153.937 304.585 154.335 306.576 153.937ZM308.369 149.555C309.033 149.023 309.431 149.023 309.564 149.555C309.697 149.953 309.431 150.351 308.767 150.75C308.236 151.148 307.506 151.48 306.576 151.746C305.78 151.879 304.85 151.879 303.788 151.746C302.726 151.613 301.597 151.215 300.402 150.551C299.207 149.887 298.079 148.824 297.016 147.363C296.087 146.168 295.29 144.442 294.627 142.184C294.095 139.927 293.697 137.735 293.432 135.611C293.166 133.353 293.1 131.427 293.232 129.834C293.365 128.24 293.697 127.443 294.228 127.443C294.892 127.443 295.357 128.373 295.622 130.232C296.021 132.091 296.353 133.619 296.618 134.814C297.149 136.939 297.88 139.13 298.809 141.387C299.738 143.645 300.734 145.438 301.796 146.766C303.124 148.492 304.319 149.555 305.381 149.953C306.444 150.219 307.439 150.086 308.369 149.555ZM430.487 12.3059C430.221 11.9075 429.823 11.3099 429.292 10.5131C428.893 9.58347 428.827 8.98587 429.093 8.72027C429.358 8.45467 429.756 8.52107 430.288 8.91947C430.951 9.31787 431.35 9.58347 431.483 9.71627C433.873 11.4427 436.063 13.8331 438.055 16.8875C440.179 19.9419 442.038 23.3283 443.632 27.0467C445.358 30.6323 446.885 34.4171 448.212 38.4011C449.54 42.3851 450.602 46.1699 451.399 49.7555C453.391 58.5203 455.05 67.1523 456.378 75.6515C457.839 84.1507 458.569 92.9155 458.569 101.946C458.569 102.211 458.569 103.008 458.569 104.336C458.702 105.664 458.503 106.461 457.972 106.727C457.573 106.461 457.108 105.797 456.577 104.735C456.179 103.672 455.914 102.942 455.781 102.543C454.187 97.6299 452.727 92.0523 451.399 85.8107C450.204 79.4363 449.075 73.6595 448.013 68.4803C447.217 64.4963 446.486 60.7115 445.822 57.1259C445.159 53.4075 444.362 49.8219 443.432 46.3691C442.636 42.9163 441.64 39.4635 440.445 36.0107C439.383 32.4251 438.055 28.7067 436.462 24.8555C436.196 24.3243 435.731 23.3947 435.067 22.0667C434.536 20.7387 433.939 19.4107 433.275 18.0827C432.611 16.7547 432.014 15.5595 431.483 14.4971C430.951 13.3019 430.619 12.5715 430.487 12.3059ZM478.286 159.913C476.826 159.116 475.83 158.585 475.299 158.319C474.768 158.187 473.772 157.655 472.311 156.726C469.125 154.867 466.204 152.476 463.548 149.555C460.893 146.5 458.503 143.18 456.378 139.595C454.254 136.009 452.329 132.224 450.602 128.24C449.009 124.123 447.615 120.073 446.42 116.089C443.764 117.815 440.578 118.878 436.86 119.276C433.275 119.542 429.956 119.675 426.902 119.675C423.051 119.675 419.201 119.542 415.35 119.276C411.632 119.011 407.848 118.878 403.998 118.878C400.28 125.783 396.761 132.49 393.442 138.997C390.255 145.371 387.733 151.347 385.874 156.925C385.874 157.058 385.807 157.323 385.674 157.722C385.542 158.253 385.343 158.519 385.077 158.519C384.679 158.519 384.479 158.054 384.479 157.124C384.479 156.195 384.479 155.597 384.479 155.331C384.479 150.019 385.741 144.11 388.264 137.603C390.919 130.963 393.84 124.455 397.027 118.081L394.039 117.882C393.243 119.741 392.114 122.331 390.654 125.651C389.326 128.971 387.998 132.423 386.67 136.009C385.475 139.595 384.347 143.047 383.284 146.367C382.355 149.687 381.89 152.343 381.89 154.335C381.89 154.734 381.691 154.933 381.293 154.933C380.762 154.933 380.363 154.535 380.098 153.738C379.832 152.808 379.567 151.812 379.301 150.75C379.168 149.687 379.036 148.625 378.903 147.563C378.903 146.367 378.903 145.571 378.903 145.172C378.903 140.524 379.5 135.677 380.695 130.631C381.89 125.451 383.484 120.737 385.475 116.487L382.886 116.089C381.691 119.011 380.563 121.932 379.5 124.854C378.438 127.643 377.509 130.564 376.712 133.619C376.712 133.884 376.646 134.216 376.513 134.615C376.38 135.013 376.181 135.146 375.915 135.013C375.65 134.482 375.451 133.884 375.318 133.22C375.318 132.423 375.318 131.759 375.318 131.228C375.318 125.651 376.314 120.272 378.305 115.093C378.969 113.765 379.633 113.101 380.297 113.101C383.085 112.304 385.874 111.839 388.662 111.707C391.583 111.574 394.571 111.507 397.624 111.507C404.263 111.507 410.836 112.039 417.342 113.101C423.848 114.031 430.354 114.495 436.86 114.495C440.047 114.495 442.968 114.23 445.623 113.699L445.225 110.511C443.764 110.91 442.171 111.175 440.445 111.308C438.852 111.441 437.325 111.507 435.864 111.507C430.686 111.507 425.308 110.976 419.732 109.914C414.288 108.851 409.043 107.59 403.998 106.129C403.732 105.863 403.201 105.664 402.404 105.531C401.608 105.266 401.209 104.934 401.209 104.535C401.209 104.27 401.608 104.071 402.404 103.938C403.201 103.672 403.732 103.539 403.998 103.539C405.857 103.407 407.649 103.34 409.375 103.34C411.234 103.207 413.093 103.141 414.952 103.141C418.006 103.141 421.06 103.207 424.113 103.34C427.167 103.34 430.288 103.34 433.474 103.34C435.068 103.34 436.727 103.34 438.453 103.34C440.179 103.34 441.839 103.274 443.432 103.141L443.034 100.95H440.445C434.072 100.95 427.698 100.352 421.325 99.1571C415.085 97.9619 408.778 97.3643 402.404 97.3643C396.961 97.3643 392.114 98.0283 387.865 99.3563C383.749 100.684 380.164 102.211 377.11 103.938C374.189 105.664 371.799 107.391 369.94 109.117C368.082 110.843 366.754 112.105 365.957 112.902C365.692 113.035 365.559 113.101 365.559 113.101C365.426 113.101 365.36 112.968 365.36 112.703C365.36 112.57 365.426 112.437 365.559 112.304C367.949 107.656 370.87 103.805 374.322 100.751C377.774 97.5635 382.023 95.1731 387.069 93.5795C392.114 82.8227 397.292 72.1323 402.604 61.5083C408.047 50.8843 413.757 40.3931 419.732 30.0347C419.865 29.7691 420.13 29.3707 420.528 28.8395C420.927 28.1755 421.325 27.8435 421.723 27.8435C421.856 27.9763 421.923 28.1091 421.923 28.2419V28.6403C421.923 29.7027 421.856 30.4995 421.723 31.0307C419.201 41.7875 415.483 52.1459 410.57 62.1059C405.657 72.0659 400.612 81.8931 395.434 91.5875L399.218 91.3883C399.616 90.5915 400.612 88.8651 402.205 86.2091C403.931 83.5531 405.724 80.8307 407.583 78.0419C409.574 75.1203 411.367 72.5307 412.96 70.2731C414.553 67.8827 415.549 66.6875 415.948 66.6875L416.147 67.2851C416.147 67.9491 415.748 69.4099 414.952 71.6675C414.155 73.9251 413.226 76.3819 412.163 79.0379C411.101 81.6939 410.039 84.2171 408.977 86.6075C408.047 88.8651 407.384 90.4587 406.985 91.3883C407.782 91.3883 408.579 91.4547 409.375 91.5875C410.172 91.5875 410.968 91.5875 411.765 91.5875C414.155 86.8067 416.678 81.8267 419.333 76.6475C422.122 71.3355 424.512 65.9571 426.503 60.5123C428.495 55.0675 429.823 49.5563 430.487 43.9787C431.283 38.4011 430.885 32.8899 429.292 27.4451C429.292 28.1091 429.093 29.4371 428.694 31.4291C428.429 33.4211 428.03 35.5459 427.499 37.8035C426.968 39.9283 426.437 41.8539 425.906 43.5803C425.375 45.1739 424.844 45.9707 424.313 45.9707C423.914 45.9707 423.715 45.7051 423.715 45.1739C423.848 44.6427 423.914 44.3107 423.914 44.1779C423.914 40.7251 424.113 37.3387 424.512 34.0187C425.043 30.5659 425.308 27.1131 425.308 23.6603C425.308 19.0123 424.578 14.4971 423.118 10.1147C423.118 9.98187 422.918 9.45067 422.52 8.52107C422.122 7.45867 422.255 6.92748 422.918 6.92748C423.184 6.92748 423.649 7.25948 424.313 7.92348C425.64 9.25147 426.902 11.0443 428.097 13.3019C429.425 15.5595 430.619 18.0163 431.682 20.6723C432.744 23.1955 433.74 25.7187 434.669 28.2419C435.599 30.7651 436.329 32.8899 436.86 34.6163C438.586 40.3267 439.98 46.1035 441.042 51.9467C442.237 57.6571 443.233 63.4339 444.03 69.2771C444.959 74.9875 445.889 80.7643 446.818 86.6075C447.748 92.4507 448.81 98.2275 450.005 103.938C451.2 109.515 452.594 114.96 454.187 120.272C455.913 125.584 457.972 130.631 460.362 135.411C462.752 140.192 465.473 144.641 468.527 148.758C471.714 152.742 475.365 156.261 479.481 159.315C480.145 159.979 480.344 160.378 480.079 160.511C479.946 160.776 479.349 160.577 478.286 159.913ZM477.888 142.981C478.021 143.778 477.954 144.176 477.689 144.176C477.423 144.043 477.091 143.778 476.693 143.379C476.428 142.981 476.096 142.516 475.697 141.985C475.432 141.454 475.299 141.122 475.299 140.989C472.112 135.146 469.59 129.236 467.731 123.26C465.872 117.151 464.411 111.043 463.349 104.934C462.287 98.6923 461.357 92.4507 460.561 86.2091C459.897 79.8347 459.034 73.3939 457.972 66.8867C457.042 60.2467 455.781 53.5403 454.187 46.7675C452.594 39.9947 450.337 33.0891 447.416 26.0507C447.283 25.7851 447.084 25.3203 446.818 24.6563C446.553 23.9923 446.553 23.5939 446.818 23.4611C447.084 23.4611 447.416 23.6603 447.814 24.0587L448.611 24.8555C451.532 28.3083 454.121 32.8899 456.378 38.6003C458.635 44.3107 460.627 50.4195 462.353 56.9267C464.079 63.4339 465.473 69.8747 466.536 76.2491C467.731 82.6235 468.66 88.2011 469.324 92.9819C470.386 100.551 471.515 108.519 472.71 116.886C473.905 125.252 475.432 133.154 477.291 140.591L477.888 142.981ZM418.736 92.3843C422.586 92.7827 426.371 93.2475 430.088 93.7787C433.939 94.3099 437.789 94.7083 441.64 94.9739C440.179 87.9355 438.918 80.9635 437.856 74.0579C436.794 67.1523 435.798 60.1139 434.868 52.9427C433.142 59.8483 430.752 66.5547 427.698 73.0619C424.777 79.5691 421.79 86.0099 418.736 92.3843ZM484.261 157.722C481.606 156.527 479.282 155.398 477.291 154.335C475.299 153.14 473.573 151.547 472.112 149.555C469.855 146.5 468.063 143.446 466.735 140.391C465.54 137.337 464.544 134.482 463.747 131.826C463.482 130.763 463.216 129.568 462.951 128.24C462.818 126.912 462.884 126.248 463.15 126.248C463.681 126.248 464.345 127.111 465.142 128.838C465.938 130.564 466.668 132.025 467.332 133.22C469.324 137.337 471.847 141.52 474.901 145.77C477.954 149.887 481.274 153.273 484.859 155.929C485.921 156.859 486.253 157.456 485.855 157.722C485.456 157.987 484.925 157.987 484.261 157.722ZM366.555 119.475C366.555 119.475 366.422 119.475 366.156 119.475H365.957C365.957 119.077 366.024 118.679 366.156 118.28C366.289 117.882 366.422 117.483 366.555 117.085C367.617 114.827 368.613 113.167 369.542 112.105C370.604 110.91 372.264 109.648 374.521 108.32C375.849 107.523 377.708 106.727 380.098 105.93C382.488 105.133 384.413 104.735 385.874 104.735C386.139 104.735 386.471 104.801 386.869 104.934C387.401 104.934 387.666 105.133 387.666 105.531C387.666 105.93 386.936 106.461 385.475 107.125C384.148 107.789 383.284 108.254 382.886 108.519C377.841 111.574 374.123 113.898 371.733 115.491C369.343 117.085 367.617 118.413 366.555 119.475ZM524.914 51.1499C525.711 48.2283 526.242 44.7091 526.508 40.5923C526.773 36.3427 526.773 32.1595 526.508 28.0427C526.242 23.7931 525.578 19.8091 524.516 16.0907C523.587 12.3723 522.126 9.51708 520.134 7.52508C519.338 6.72828 518.674 6.46268 518.143 6.72828C517.744 6.99388 517.877 7.65787 518.541 8.72027C519.869 11.1107 520.466 14.8291 520.334 19.8755C520.334 24.7891 519.935 30.1675 519.139 36.0107C518.342 41.8539 517.28 47.6971 515.952 53.5403C514.624 59.3835 513.296 64.4963 511.969 68.8787C511.305 70.7379 510.641 73.0619 509.977 75.8507C509.313 78.6395 508.583 81.4947 507.786 84.4163C507.122 87.2051 506.525 89.9939 505.994 92.7827C505.463 95.4387 505.064 97.6963 504.799 99.5555C504.799 99.9539 504.732 100.751 504.6 101.946C504.467 103.008 504.6 103.672 504.998 103.938C505.263 103.938 505.662 103.407 506.193 102.344C506.724 101.149 507.056 100.419 507.189 100.153C510.375 92.7163 513.628 84.8147 516.948 76.4483C520.267 67.9491 522.923 59.5163 524.914 51.1499ZM520.334 99.7547C520.997 97.3643 521.927 94.2435 523.122 90.3923C524.317 86.5411 525.512 82.3579 526.707 77.8427C527.902 73.1947 529.03 68.4139 530.093 63.5003C531.288 58.4539 532.151 53.6067 532.682 48.9587C533.346 44.1779 533.545 39.7955 533.279 35.8115C533.147 31.8275 532.483 28.5739 531.288 26.0507C531.155 25.6523 530.889 25.2539 530.491 24.8555C530.093 24.4571 529.894 24.7891 529.894 25.8515C530.159 34.3507 529.296 42.8499 527.304 51.3491C525.313 59.8483 523.188 67.5507 520.931 74.4563C519.205 79.9011 517.412 85.3459 515.554 90.7907C513.828 96.2355 512.301 101.68 510.973 107.125C509.778 112.437 508.981 117.683 508.583 122.862C508.317 128.041 508.848 133.021 510.176 137.802C510.707 139.528 511.172 140.391 511.57 140.391C511.969 140.259 512.168 139.395 512.168 137.802C512.168 135.411 512.367 132.755 512.765 129.834C513.296 126.779 513.96 123.592 514.757 120.272C515.554 116.952 516.417 113.566 517.346 110.113C518.276 106.527 519.271 103.075 520.334 99.7547ZM516.549 154.335C511.902 153.804 507.72 151.48 504.002 147.363C500.417 143.247 498.027 138.2 496.832 132.224C495.637 126.514 495.305 120.737 495.836 114.894C496.5 108.918 497.562 103.34 499.023 98.1611C501.147 90.1931 503.67 82.0259 506.591 73.6595C509.512 65.1603 511.969 56.7939 513.96 48.5603C516.085 40.3267 517.28 32.4251 517.545 24.8555C517.811 17.1531 516.483 10.1147 513.562 3.74026C513.296 3.60746 513.097 3.34187 512.964 2.94348C512.832 2.41227 512.633 2.21307 512.367 2.34587C511.969 2.34587 511.902 2.81066 512.168 3.74026C513.23 9.84907 513.296 16.4891 512.367 23.6603C511.438 30.6987 509.911 38.0691 507.786 45.7715C505.794 53.3411 503.471 61.1763 500.815 69.2771C498.293 77.3779 495.903 85.4787 493.645 93.5795C491.919 99.5555 490.724 105.93 490.06 112.703C489.529 119.343 489.994 126.049 491.455 132.822C492.251 136.275 493.446 139.395 495.04 142.184C496.766 144.973 498.757 147.363 501.015 149.355C503.272 151.215 505.728 152.675 508.384 153.738C511.039 154.8 513.761 155.265 516.549 155.132H517.147C517.28 155.132 517.479 155.066 517.744 154.933C517.744 154.535 517.346 154.335 516.549 154.335ZM510.574 144.375C508.184 141.587 506.259 138.001 504.799 133.619C504.666 133.22 504.467 132.623 504.201 131.826C503.936 130.896 503.67 130.033 503.405 129.236C503.139 128.307 502.873 127.51 502.608 126.846C502.342 126.049 502.143 125.651 502.01 125.651C501.479 125.651 501.214 126.514 501.214 128.24C501.214 129.967 501.413 131.959 501.811 134.216C502.21 136.474 502.807 138.798 503.604 141.188C504.4 143.446 505.33 145.239 506.392 146.567C508.516 148.957 510.641 150.418 512.765 150.949C515.023 151.48 517.28 151.746 519.537 151.746C520.334 151.746 520.931 151.547 521.329 151.148C521.861 150.617 521.529 150.219 520.334 149.953C516.483 149.555 513.23 147.695 510.574 144.375ZM593.231 99.7547C593.629 96.1691 593.696 92.3843 593.43 88.4003C593.165 84.4163 592.301 80.7643 590.841 77.4443C589.513 73.9915 587.389 71.1363 584.468 68.8787C581.679 66.6211 577.962 65.4923 573.314 65.4923C567.074 65.4923 561.63 67.2187 556.983 70.6715C552.335 73.9915 548.351 78.1747 545.032 83.2211C541.712 88.1347 539.123 93.4467 537.264 99.1571C535.405 104.735 534.21 109.847 533.679 114.495C532.883 120.87 532.75 126.381 533.281 131.029C533.945 135.677 535.073 139.528 536.667 142.583C538.26 145.504 540.252 147.695 542.642 149.156C545.165 150.617 547.886 151.347 550.808 151.347C554.925 151.48 559.24 150.351 563.754 147.961C568.402 145.438 572.717 141.985 576.7 137.603C580.683 133.087 584.136 127.643 587.057 121.268C590.111 114.761 592.169 107.59 593.231 99.7547ZM529.099 113.499C529.63 108.187 530.957 102.344 533.082 95.9699C535.206 89.5955 538.127 83.6859 541.845 78.2411C545.696 72.7963 550.276 68.2811 555.589 64.6955C560.9 60.9771 567.074 59.1179 574.111 59.1179C579.422 59.1179 583.804 60.3795 587.256 62.9027C590.708 65.4259 593.364 68.6795 595.223 72.6635C597.081 76.5147 598.276 80.7643 598.808 85.4123C599.339 89.9275 599.339 94.2435 598.808 98.3603C597.613 107.922 595.289 116.222 591.837 123.26C588.385 130.299 584.335 136.208 579.688 140.989C575.04 145.637 570.128 149.156 564.949 151.547C559.771 153.804 554.792 154.933 550.011 154.933C546.426 154.933 543.173 154.136 540.252 152.543C537.463 150.949 535.073 148.492 533.082 145.172C531.223 141.719 529.895 137.403 529.099 132.224C528.435 126.912 528.435 120.671 529.099 113.499ZM551.405 141.587C550.741 141.587 550.077 141.387 549.413 140.989C548.75 140.458 548.218 139.86 547.82 139.196C547.422 138.532 547.156 137.868 547.023 137.204C546.891 136.54 547.156 136.075 547.82 135.81C548.218 135.677 548.75 136.142 549.413 137.204C550.077 138.267 550.808 138.798 551.604 138.798C552.932 138.798 554.46 137.935 556.186 136.208C558.045 134.482 559.771 132.49 561.364 130.232C563.091 127.842 564.551 125.518 565.746 123.26C567.074 121.003 568.003 119.343 568.534 118.28C569.065 117.218 569.597 115.89 570.128 114.296C570.659 112.57 571.124 110.843 571.522 109.117C572.053 107.391 572.451 105.731 572.717 104.137C573.115 102.411 573.381 100.95 573.514 99.7547C574.177 93.7787 574.045 89.1971 573.115 86.0099C572.186 82.6899 570.659 81.0299 568.534 81.0299C566.941 81.0299 565.281 81.5611 563.555 82.6235C561.829 83.5531 560.169 84.8147 558.576 86.4083C557.116 88.0019 555.788 89.7947 554.593 91.7867C553.398 93.6459 552.534 95.5715 552.003 97.5635C551.339 99.8211 550.874 100.95 550.608 100.95C550.21 100.95 550.011 99.8211 550.011 97.5635C550.409 95.0403 551.272 92.5835 552.6 90.1931C553.929 87.6699 555.589 85.4787 557.58 83.6195C559.572 81.6275 561.763 80.0339 564.153 78.8387C566.543 77.5107 568.999 76.8467 571.522 76.8467C574.045 76.8467 575.904 77.7763 577.099 79.6355C578.426 81.3619 579.356 83.5531 579.887 86.2091C580.418 88.7323 580.617 91.3883 580.484 94.1771C580.484 96.8331 580.352 98.9579 580.086 100.551C579.555 104.137 578.692 107.656 577.497 111.109C576.435 114.429 575.107 117.815 573.514 121.268C572.717 122.862 571.522 124.854 569.929 127.244C568.335 129.502 566.476 131.693 564.352 133.818C562.36 135.943 560.169 137.802 557.779 139.395C555.522 140.856 553.398 141.587 551.405 141.587ZM557.779 145.371C557.912 146.168 557.248 146.832 555.788 147.363C554.46 147.895 553.065 148.16 551.604 148.16C547.488 148.027 544.301 146.699 542.044 144.176C539.92 141.653 538.393 138.665 537.463 135.212C536.667 131.759 536.268 128.174 536.268 124.455C536.401 120.737 536.6 117.616 536.866 115.093C537.397 110.711 538.459 105.797 540.053 100.352C541.646 94.9075 543.903 89.7947 546.824 85.0139C549.745 80.2331 553.331 76.2491 557.58 73.0619C561.829 69.7419 566.875 68.0819 572.717 68.0819C576.567 68.0819 579.621 69.0779 581.878 71.0699C584.268 73.0619 585.995 75.5187 587.057 78.4403C588.252 81.3619 588.916 84.5491 589.048 88.0019C589.314 91.3219 589.248 94.3763 588.849 97.1651C588.584 100.219 588.119 103.008 587.455 105.531C586.791 108.055 585.862 110.843 584.667 113.898C584.268 114.827 583.737 115.89 583.073 117.085C582.41 118.28 581.679 118.811 580.883 118.679C580.484 118.546 580.352 118.015 580.484 117.085C580.75 116.155 581.015 115.027 581.281 113.699C581.679 112.238 582.078 110.777 582.476 109.316C582.874 107.723 583.14 106.262 583.273 104.934C583.538 102.676 583.671 99.8875 583.671 96.5675C583.804 93.1147 583.538 89.7947 582.874 86.6075C582.343 83.4203 581.281 80.6979 579.688 78.4403C578.094 76.1827 575.704 75.0539 572.518 75.0539C567.871 75.0539 563.555 76.5811 559.572 79.6355C555.721 82.5571 552.334 86.2091 549.413 90.5915C546.492 94.8411 544.102 99.3563 542.243 104.137C540.517 108.785 539.455 112.902 539.057 116.487C538.791 118.612 538.725 121.268 538.858 124.455C538.99 127.643 539.455 130.83 540.252 134.017C541.181 137.071 542.642 139.727 544.633 141.985C546.625 144.243 549.347 145.438 552.799 145.571C553.863 145.703 554.858 145.637 555.788 145.371C556.85 144.973 557.514 144.973 557.779 145.371ZM628.323 88.5995C627.261 93.1147 625.734 97.8955 623.742 102.942C621.883 107.855 619.759 112.437 617.369 116.687C617.369 116.952 617.169 117.417 616.771 118.081C616.506 118.612 616.107 118.878 615.576 118.878C615.311 118.878 615.111 118.479 614.979 117.683C614.979 116.886 615.045 116.355 615.178 116.089C615.178 113.964 615.443 111.175 615.974 107.723C616.506 104.137 617.169 101.215 617.966 98.9579C618.232 98.1611 618.63 96.2355 619.161 93.1811C619.825 90.1267 620.356 86.7403 620.754 83.0219C621.286 79.1707 621.551 75.5187 621.551 72.0659C621.684 68.4803 621.286 65.8243 620.356 64.0979V63.3011C620.887 62.9027 621.485 63.0355 622.149 63.6995C623.875 65.1603 625.203 66.9531 626.132 69.0779C627.194 71.2027 627.924 73.4603 628.323 75.8507C628.854 78.1083 629.053 80.3659 628.92 82.6235C628.92 84.8811 628.721 86.8731 628.323 88.5995ZM636.09 87.8027C637.551 85.9435 638.945 84.6155 640.273 83.8187C641.6 83.0219 642.928 82.3579 644.256 81.8267C644.389 81.8267 644.721 81.7603 645.252 81.6275C645.783 81.4947 646.181 81.6275 646.447 82.0259C646.712 82.4243 646.646 82.8891 646.248 83.4203C645.849 83.9515 645.517 84.3499 645.252 84.6155C644.322 85.5451 643.26 86.6075 642.065 87.8027C641.003 88.8651 640.007 89.9275 639.078 90.9899C637.75 92.4507 636.688 94.1771 635.891 96.1691C635.094 98.0283 634.497 99.9539 634.099 101.946C636.356 99.5555 638.48 97.2979 640.472 95.1731C642.596 93.0483 644.853 91.0563 647.243 89.1971C650.297 86.9395 652.953 84.0179 655.21 80.4323C657.467 76.8467 659.061 71.6011 659.99 64.6955C660.256 64.0315 660.588 63.6331 660.986 63.5003C661.384 63.3675 661.583 63.8323 661.583 64.8947C661.982 72.5971 661.185 78.7059 659.193 83.2211C657.202 87.7363 654.214 91.5211 650.231 94.5755C648.107 96.1691 645.982 97.8955 643.858 99.7547C641.733 101.614 639.675 103.672 637.684 105.93C635.825 108.187 634.099 110.843 632.505 113.898C630.912 116.952 629.518 120.471 628.323 124.455C627.393 127.51 626.464 130.431 625.534 133.22C624.605 135.876 623.609 138.466 622.547 140.989C622.281 141.919 621.883 142.383 621.352 142.383C620.954 142.251 620.754 141.587 620.754 140.391C620.091 134.017 620.489 127.709 621.949 121.467C623.543 115.093 625.402 108.519 627.526 101.747C628.456 98.4267 629.518 95.1067 630.713 91.7867C632.041 88.4667 632.638 84.6819 632.505 80.4323C632.505 78.9715 633.103 77.4443 634.298 75.8507C635.493 74.2571 636.953 72.7963 638.679 71.4683C640.405 70.0075 642.198 68.8123 644.057 67.8827C645.916 66.8203 647.509 66.0899 648.837 65.6915C650.032 65.2931 650.629 65.3595 650.629 65.8907C650.629 66.4219 650.231 67.0859 649.434 67.8827C646.646 70.4059 643.791 73.3939 640.87 76.8467C638.082 80.2995 636.489 83.9515 636.09 87.8027ZM618.763 154.734C618.63 154.867 618.497 154.933 618.365 154.933C618.365 154.8 618.033 154.535 617.369 154.136C613.385 151.215 610.265 148.027 608.008 144.575C605.751 141.122 604.091 137.603 603.029 134.017C602.099 130.299 601.701 126.647 601.834 123.061C601.967 119.343 602.431 115.757 603.228 112.304C604.29 107.656 605.552 103.075 607.012 98.5595C608.605 93.9115 610.066 89.4627 611.394 85.2131C612.721 80.8307 613.717 76.5811 614.381 72.4643C615.045 68.2147 615.045 64.1643 614.381 60.3131C614.381 60.0475 614.58 59.8483 614.979 59.7155C615.111 59.7155 615.244 59.8483 615.377 60.1139C615.51 60.2467 615.643 60.3795 615.775 60.5123C618.298 64.7619 619.559 69.1443 619.559 73.6595C619.559 78.0419 618.962 82.5571 617.767 87.2051C616.572 91.7203 615.045 96.3683 613.186 101.149C611.46 105.797 610.066 110.511 609.004 115.292C607.676 121.401 607.543 127.908 608.605 134.814C609.8 141.719 612.921 147.895 617.966 153.339C618.232 153.738 618.497 154.003 618.763 154.136C619.028 154.269 619.028 154.468 618.763 154.734ZM624.738 154.933C624.472 154.933 624.207 154.867 623.941 154.734L623.144 154.335C621.286 153.14 619.626 151.879 618.165 150.551C616.705 149.09 615.443 147.031 614.381 144.375C613.983 143.446 613.651 142.251 613.385 140.79C613.12 139.196 612.921 137.735 612.788 136.407C612.788 135.079 612.854 133.951 612.987 133.021C613.253 132.091 613.651 131.693 614.182 131.826C614.58 131.826 614.979 132.357 615.377 133.419C615.908 134.482 616.306 135.544 616.572 136.607C616.838 138.067 617.103 139.462 617.369 140.79C617.767 142.118 618.232 143.313 618.763 144.375C620.223 147.695 622.149 150.883 624.539 153.937C624.804 154.601 624.871 154.933 624.738 154.933ZM657.202 65.4923C657.202 68.2811 656.405 70.7379 654.812 72.8627C653.218 74.9875 651.293 76.7803 649.036 78.2411C648.638 78.5067 648.372 78.5067 648.239 78.2411C648.107 77.8427 648.04 77.5771 648.04 77.4443C648.04 76.6475 648.372 75.7179 649.036 74.6555C649.7 73.4603 650.43 72.2651 651.227 71.0699C652.156 69.7419 653.019 68.4139 653.816 67.0859C654.613 65.7579 655.144 64.5627 655.409 63.5003C655.808 62.8363 656.206 62.8363 656.604 63.5003C657.003 64.1643 657.202 64.8283 657.202 65.4923ZM681.705 81.4283C681.837 80.2331 682.236 78.8387 682.9 77.2451C683.563 75.5187 684.427 73.9251 685.489 72.4643C686.684 70.8707 688.078 69.4763 689.671 68.2811C691.265 66.9531 693.057 66.0899 695.049 65.6915C699.298 64.8947 702.816 65.1603 705.604 66.4883C708.393 67.8163 710.517 69.3435 711.978 71.0699C712.509 71.8667 712.708 72.3315 712.575 72.4643C712.31 72.7299 711.845 72.6635 711.181 72.2651C710.384 71.7339 709.057 71.2691 707.198 70.8707C705.472 70.4723 703.546 70.4059 701.422 70.6715C699.43 70.8043 697.439 71.4019 695.447 72.4643C693.588 73.5267 692.061 75.2531 690.866 77.6435C689.804 79.9011 689.074 82.2251 688.675 84.6155C688.277 87.0059 688.012 89.2635 687.879 91.3883C687.879 93.3803 687.945 95.1067 688.078 96.5675C688.211 98.0283 688.277 99.0243 688.277 99.5555C688.543 101.016 688.742 102.875 688.875 105.133C689.14 107.258 689.273 109.449 689.273 111.707C689.273 113.964 689.207 116.222 689.074 118.479C688.941 120.604 688.675 122.463 688.277 124.057C688.144 124.455 687.945 125.119 687.68 126.049C687.547 126.979 687.348 127.443 687.082 127.443C686.418 127.443 686.086 126.979 686.086 126.049C686.086 125.119 686.086 124.455 686.086 124.057C685.821 120.737 685.356 117.417 684.692 114.097C684.028 110.644 683.364 107.125 682.7 103.539C682.169 99.9539 681.771 96.3683 681.505 92.7827C681.24 89.0643 681.306 85.2795 681.705 81.4283ZM674.734 120.87C674.867 118.214 674.601 114.495 673.937 109.715C673.406 104.801 673.207 99.1571 673.34 92.7827C673.472 89.4627 673.804 86.0763 674.336 82.6235C674.867 79.0379 676.128 75.5187 678.12 72.0659C680.244 68.3475 682.9 65.6251 686.086 63.8987C689.406 62.0395 692.26 61.1763 694.65 61.3091C695.049 61.3091 695.447 61.3091 695.845 61.3091C696.244 61.3091 696.443 61.3755 696.443 61.5083C696.443 61.7739 696.376 61.9067 696.244 61.9067C696.111 61.7739 695.646 61.8403 694.85 62.1059C692.46 62.7699 690.335 63.8987 688.476 65.4923C686.617 66.9531 685.024 68.6795 683.696 70.6715C682.369 72.6635 681.306 74.7219 680.51 76.8467C679.713 78.9715 679.248 80.8971 679.115 82.6235C678.319 89.9275 678.385 96.3019 679.315 101.747C679.979 106.129 680.51 110.711 680.908 115.491C681.306 120.139 681.107 124.455 680.31 128.439C679.647 132.291 678.252 135.544 676.128 138.2C674.136 140.723 671.016 142.118 666.767 142.383C666.369 142.383 665.838 142.383 665.174 142.383C664.643 142.251 664.377 142.051 664.377 141.786C664.377 141.52 664.975 141.055 666.17 140.391C669.622 138.798 671.879 136.474 672.941 133.419C674.004 130.365 674.601 126.182 674.734 120.87ZM653.622 144.375C655.481 147.297 658.402 149.488 662.386 150.949C666.502 152.277 671.348 152.144 676.925 150.551C679.713 149.754 682.169 148.359 684.294 146.367C686.418 144.375 688.144 142.184 689.472 139.794C690.933 137.271 691.995 134.681 692.659 132.025C693.455 129.369 693.92 126.912 694.053 124.655C694.186 120.936 694.053 117.284 693.655 113.699C693.389 110.113 692.991 106.66 692.46 103.34C692.061 99.8875 691.663 96.5675 691.265 93.3803C690.999 90.1931 690.999 87.0723 691.265 84.0179C691.53 80.6979 692.46 78.1747 694.053 76.4483C695.646 74.7219 697.571 73.6595 699.829 73.2611C702.219 72.7299 704.675 72.8627 707.198 73.6595C709.721 74.4563 712.044 75.7179 714.169 77.4443C714.7 77.7099 714.899 78.0419 714.766 78.4403C714.766 78.7059 714.633 78.7723 714.368 78.6395C714.102 78.5067 713.837 78.3739 713.571 78.2411C708.658 76.6475 704.808 76.1827 702.02 76.8467C699.364 77.5107 697.903 79.9011 697.638 84.0179C697.372 88.7987 697.704 94.4427 698.634 100.95C699.696 107.324 700.094 114.429 699.829 122.264C699.961 124.92 699.63 127.975 698.833 131.427C698.169 134.88 696.974 138.267 695.248 141.587C693.655 144.774 691.464 147.629 688.675 150.152C686.02 152.675 682.833 154.269 679.115 154.933C672.078 155.995 666.435 155.597 662.186 153.738C658.07 151.879 655.083 149.023 653.224 145.172C652.958 144.375 652.826 143.911 652.826 143.778H653.025C653.025 143.778 653.224 143.977 653.622 144.375ZM662.386 144.375C664.908 145.039 667.962 145.305 671.547 145.172C672.742 145.039 674.203 144.707 675.929 144.176C677.655 143.645 678.584 143.512 678.717 143.778C679.115 144.309 678.717 144.973 677.522 145.77C676.327 146.567 674.8 147.297 672.941 147.961C671.082 148.492 669.157 148.891 667.166 149.156C665.174 149.289 663.514 149.09 662.186 148.559C659.664 147.496 657.871 146.367 656.809 145.172C655.614 143.844 654.552 142.251 653.622 140.391L653.224 139.595C652.958 139.063 652.892 138.731 653.025 138.599C653.158 138.466 653.357 138.466 653.622 138.599C653.755 138.731 653.821 138.864 653.821 138.997C655.415 140.458 656.743 141.587 657.805 142.383C659 143.047 660.527 143.711 662.386 144.375ZM757.083 47.7635C755.224 52.8099 753.034 57.9891 750.511 63.3011C748.121 68.4803 745.598 73.3939 742.942 78.0419C742.81 78.1747 742.478 78.5067 741.947 79.0379C741.548 79.5691 741.216 79.8347 740.951 79.8347C740.552 79.7019 740.353 79.3035 740.353 78.6395C740.486 77.8427 740.552 77.3779 740.552 77.2451C740.951 74.7219 741.548 71.6011 742.345 67.8827C743.274 64.0315 744.27 60.9107 745.332 58.5203C745.731 57.7235 746.395 55.6651 747.324 52.3451C748.254 48.8923 749.117 45.1075 749.913 40.9907C750.843 36.8739 751.507 32.9563 751.905 29.2379C752.303 25.3867 752.104 22.5315 751.307 20.6723C751.175 20.4067 751.241 20.1411 751.507 19.8755C751.639 19.7427 751.706 19.6099 751.706 19.4771C751.971 19.4771 752.436 19.8091 753.1 20.4731C754.56 22.0667 755.689 24.0587 756.486 26.4491C757.415 28.8395 758.013 31.2963 758.278 33.8195C758.544 36.3427 758.544 38.8659 758.278 41.3891C758.013 43.9123 757.614 46.0371 757.083 47.7635ZM756.087 79.4363C754.627 83.9515 752.768 88.4667 750.511 92.9819C748.254 97.3643 746.196 101.282 744.337 104.735C744.071 105.399 743.805 105.863 743.54 106.129C743.274 106.262 743.075 106.328 742.942 106.328C742.544 106.195 742.345 105.996 742.345 105.731C742.345 105.332 742.345 104.801 742.345 104.137C743.142 96.9659 744.669 89.9939 746.926 83.2211C749.316 76.3155 751.905 69.2771 754.693 62.1059C756.419 57.8563 757.946 53.4739 759.274 48.9587C760.735 44.4435 761.531 39.4635 761.664 34.0187C761.664 33.3547 761.863 33.0227 762.261 33.0227C762.527 33.0227 762.793 33.3547 763.058 34.0187C764.519 36.6747 765.116 40.1275 764.851 44.3771C764.718 48.4939 764.12 52.7435 763.058 57.1259C761.996 61.5083 760.735 65.7579 759.274 69.8747C757.946 73.8587 756.884 77.0459 756.087 79.4363ZM737.565 117.284C737.963 117.948 738.03 118.347 737.764 118.479C737.499 118.612 737.233 118.546 736.968 118.28C733.515 114.296 730.926 110.379 729.2 106.527C727.474 102.543 726.412 98.6259 726.013 94.7747C725.615 90.7907 725.748 86.9395 726.412 83.2211C727.076 79.3699 728.005 75.6515 729.2 72.0659C730.793 67.0195 732.586 62.0395 734.577 57.1259C736.702 52.2123 738.627 47.4315 740.353 42.7835C742.079 38.1355 743.474 33.5539 744.536 29.0387C745.731 24.5235 746.195 20.0747 745.93 15.6923C745.93 15.4267 745.996 15.2939 746.129 15.2939C746.395 15.2939 746.66 15.6259 746.926 16.2899C748.785 20.9379 749.448 25.7187 748.917 30.6323C748.386 35.4131 747.324 40.3267 745.731 45.3731C744.137 50.2867 742.212 55.2667 739.955 60.3131C737.831 65.3595 735.972 70.3395 734.378 75.2531C732.387 81.6275 731.457 88.4667 731.59 95.7707C731.723 103.075 733.714 110.246 737.565 117.284ZM739.955 108.32C740.221 110.179 740.552 111.906 740.951 113.499C741.482 114.96 742.146 116.554 742.942 118.28C743.208 118.944 743.208 119.276 742.942 119.276C742.677 119.276 742.279 119.143 741.747 118.878C740.021 117.417 738.76 115.956 737.963 114.495C737.167 112.902 736.436 110.644 735.773 107.723C735.507 106.527 735.374 105.133 735.374 103.539C735.374 101.813 735.441 100.219 735.573 98.7587C735.839 97.2979 736.104 96.0363 736.37 94.9739C736.768 93.9115 737.167 93.4467 737.565 93.5795C737.963 93.8451 738.229 94.7747 738.362 96.3683C738.627 97.8291 738.76 98.8251 738.76 99.3563C739.026 100.95 739.225 102.477 739.357 103.938C739.49 105.399 739.689 106.859 739.955 108.32ZM731.789 131.029C732.453 131.029 733.449 131.095 734.777 131.228C736.104 131.228 736.835 131.759 736.968 132.822C736.968 133.22 736.37 133.751 735.175 134.415C734.113 134.947 732.851 135.743 731.391 136.806C730.063 137.735 728.802 139.063 727.607 140.79C726.545 142.383 726.08 144.442 726.213 146.965C726.345 148.426 726.478 149.887 726.611 151.347C726.876 152.675 727.341 153.671 728.005 154.335C728.271 154.734 728.536 155.066 728.802 155.331C729.2 155.73 729.333 155.995 729.2 156.128C728.934 156.128 728.669 155.995 728.403 155.73C728.138 155.597 727.872 155.531 727.607 155.531C724.951 154.468 723.026 152.941 721.831 150.949C720.636 148.957 719.972 147.031 719.839 145.172C719.706 141.321 720.503 138.067 722.229 135.411C724.088 132.623 727.275 131.162 731.789 131.029ZM739.357 138.001C740.021 137.735 740.552 137.603 740.951 137.603C741.349 137.603 741.548 138.001 741.548 138.798C741.681 139.86 741.349 140.856 740.552 141.786C739.889 142.715 739.158 143.778 738.362 144.973C737.698 146.035 737.233 147.231 736.968 148.559C736.835 149.887 737.299 151.547 738.362 153.539C738.627 154.07 739.092 154.667 739.756 155.331C740.42 156.128 740.619 156.46 740.353 156.327C740.088 156.593 739.557 156.527 738.76 156.128C737.963 155.863 737.432 155.73 737.167 155.73C734.909 154.8 733.183 153.472 731.988 151.746C730.793 150.019 730.196 148.359 730.196 146.766C730.063 144.508 730.993 142.583 732.984 140.989C735.109 139.395 737.233 138.399 739.357 138.001ZM745.133 147.563C745.133 148.094 744.934 148.758 744.536 149.555C744.27 150.351 743.739 150.75 742.942 150.75C742.279 150.883 741.681 150.551 741.15 149.754C740.752 148.824 740.552 148.094 740.552 147.563C740.552 147.031 740.752 146.367 741.15 145.571C741.548 144.774 742.079 144.375 742.743 144.375C743.54 144.375 744.137 144.774 744.536 145.571C744.934 146.235 745.133 146.899 745.133 147.563Z" fill="white"/>
</svg>
